<svg xmlns="http://www.w3.org/2000/svg" width="1073.881" height="351.027" viewBox="0 0 1073.881 351.027"><defs><style>.a{fill:#80808e;stroke:rgba(0,0,0,0);stroke-miterlimit:10;}</style></defs><path class="a" d="M157.285,241.732a97.3,97.3,0,0,0-17.915-32.181c-.616-.731.424-1.791,1.059-1.059a91.928,91.928,0,0,1,18.513,32.783.8.8,0,0,1-.832,1.052A.841.841,0,0,1,157.285,241.732ZM304.36,218.844c-32.25-7.5-78.744-29.57-103.152,5.039-.533.755-1.781.049-1.256-.733,17.277-25.738,49.734-21.4,75.7-14.054,42.224,11.939,83.929,18.6,127.923,16.791,1.052-.043,1.043,1.578,0,1.63q-9.322.471-18.643.472A355.893,355.893,0,0,1,304.36,218.844Zm-200.566,6.2c3.375-9.489,10.718-17.6,20.326-21.009.893-.317,1.51,1.156.645,1.529-9.085,3.921-16.107,10.449-19.57,19.866a.737.737,0,0,1-.715.5A.658.658,0,0,1,103.794,225.044ZM-75.392,189.469c-.884-.3-.507-1.692.386-1.4,49.392,16.02,100.244,23.994,152.118,24.99a.837.837,0,0,1,0,1.674h-.493C24.879,214.732-26.36,205.84-75.392,189.469Zm418.961,14.682a19.065,19.065,0,0,1,23.6-3.425.815.815,0,0,1-.823,1.407,17.918,17.918,0,0,0-21.751,3.046.67.67,0,0,1-.485.22A.748.748,0,0,1,343.569,204.151Zm-473.407-11.717a36.678,36.678,0,0,0-22.046-25.8c-.823-.332-.492-1.669.375-1.359a35.979,35.979,0,0,1,23.327,26.7.9.9,0,0,1-.9,1.073A.747.747,0,0,1-129.839,192.434Zm-27.128-1.493c-2-5.6-3.726-11.283-5.456-16.969-.292-.961,1.159-1.333,1.487-.41,1.993,5.6,3.989,11.2,5.711,16.9a.84.84,0,0,1-.864,1.1A.906.906,0,0,1-156.966,190.94Zm-28.212-11.2a32.421,32.421,0,0,1,12.946-14.567c-20.759.048-41.543-.449-62.23-1.193a.727.727,0,0,1,0-1.454c20.907-.753,41.912-1.247,62.891-1.188-8.015-4.511-13.991-11.471-18.076-19.742-.9.392-1.789.835-2.694,1.191-.887.348-1.229-.939-.594-1.409.8-.591,1.565-1.2,2.35-1.792-.374-.839-.743-1.682-1.08-2.543-56.976,2.673-114.762-.423-171.8-.745-58.037-.328-116.081.1-174.116-.508a.727.727,0,0,1,0-1.454c58.035-.612,116.078-.181,174.116-.508,56.563-.32,113.873-3.354,170.392-.8a76.116,76.116,0,0,1-3.328-24.967c-.456-.017-.916-.017-1.372-.039a.774.774,0,0,1-.2-1.514c.553-.133,1.116-.242,1.671-.368.616-11.753,3.732-23.283,9.117-32.618-2.646-1.43-5.316-2.822-7.985-4.24a.83.83,0,0,1,.083-1.486c19.652-30.092,57.693-41,91.184-47.222,41.583-7.729,84.218-12.2,126.4-14.754C98.57,1.211,174.57,3.287,250.377,9.318a1.606,1.606,0,0,1,.947-.644c21.892-5.306,45.729-5.309,68.142-6.932,1.527-.111,3.057-.2,4.585-.309a55.011,55.011,0,0,0-12.475-16.928c-.628-.568.211-1.662.908-1.176C318.742-12.3,323.2-5.976,326.783,1.25c21.109-1.439,42.247-2.514,63.4-3.066,47.859-1.249,95.853-.766,143.695.921a.749.749,0,0,1,0,1.5C486.868.533,439.9.149,392.9,1.669c-21.5.7-43,1.633-64.468,3.106,3.975,8.987,6.882,19.049,10.21,28.489,1.1-.048,2.138-.085,3.136-.118,16.376-14.813,40.224-16.275,61.323-16.89,32.466-.947,65.015-.342,97.422,1.824,1.067.071,1.081,1.725,0,1.674-27.957-1.312-55.9-1.948-83.89-1.354-25.84.548-50.4,1.288-72.363,15.471a1.245,1.245,0,0,1-.81,1.872c-.741.1-1.58.214-2.464.327-.026.019-.053.034-.079.053a.656.656,0,0,1-.733.047l-.472.058C346.5,54.544,355.6,69.651,378.742,68.186a.915.915,0,0,1,.591.167c34.89-.447,69.87-.728,104.749-.328a.727.727,0,0,1,0,1.453C447.927,70.5,411.651,70.8,375.476,70.927c-13.4,1.5-25.368-7.851-32.164-19.124a84.01,84.01,0,0,1-6.978-15.193c-24.919,2.633-80.3,4.689-83.841-22.784-70.142-3.632-140.634-4.549-210.611-1.351q-16.255.744-32.464,1.959Q8.064,20.273,6.9,26.049C47.788,21.928,88.9,21.7,128.674,27.334c9.152-5.9,19.7-8.924,31.267-6.8,29.342,5.392,51.117,38.573,54.1,66.656,98.693-5.081,197.808-4.063,296.6-3.73a.86.86,0,0,1,0,1.718c-98.954.331-197.9,3.342-296.846,3.5-.513.379-1.442.284-1.566-.466-4.208-25.372-22.81-55.8-49.046-63.043-11.366-3.139-21.967-1-31.313,4.18a1.142,1.142,0,0,1-1.074.72l-.2,0C116.42,38.444,105.273,53.8,98.97,68.152c-.331.754-1.632.2-1.329-.56,5.4-13.524,14.889-28.2,27.317-37.654-39.832-.908-79.293-1.785-119.1,1.592a145.08,145.08,0,0,0-2.5,30.465c.038,1.117-1.633,1.087-1.718,0A140.593,140.593,0,0,1,2.3,31.846,916.5,916.5,0,0,0-123.574,52.36a75.372,75.372,0,0,1,16.993,47.326.772.772,0,0,1-1.543,0,80.788,80.788,0,0,0-17.882-46.975c-.788-.986.409-2.343,1.307-1.7C-83.673,40.039-40.4,31.046,3.2,26.4A89.377,89.377,0,0,1,6.254,14.684c-29.833,2.275-59.57,5.566-89.27,9.356C-121.887,29-167.975,34.493-193.406,68a54.118,54.118,0,0,1,7.957,2.707,48.079,48.079,0,0,1,5.031-6.444c13.416-14.275,31.449-12.685,43.2,2.7,13.571,17.771,17.55,43.809,12.756,65.415,73.678-5.017,148.8-2.536,222.709,2.2A112.069,112.069,0,0,1,96.214,112.6c-65.989,8.824-133.191,9.2-199.554,6.8a.749.749,0,0,1,0-1.5c66.879-1.544,133.271-3.326,199.688-9.689.952-19.969,7.464-39.481,20.823-54.087,10.651-11.643,25.443-16.468,40.262-9.849,16.984,7.585,24.73,25.073,32.06,40.962.41.891-.9,1.676-1.332.778-6.691-13.768-14.414-28.76-28.143-36.722-19.084-11.065-37.333-.185-47.254,16.93a92.509,92.509,0,0,0-12.07,41.56q18.336-1.812,36.677-4.109c1.264-.161,1.525,1.969.3,2.206-12.318,2.381-24.7,4.383-37.122,6.116a110.763,110.763,0,0,0,2.112,22.867q11.931.779,23.821,1.618c1.544.109,1.567,2.495,0,2.422-7.73-.359-15.451-.618-23.172-.883a119.14,119.14,0,0,0,6.209,19.492,2.353,2.353,0,0,1,.73,1.768c.133.307.248.622.383.928.935,2.108-2.083,3.978-3.157,1.845-.028-.057-.05-.115-.079-.172-42.092-2.958-83.624-9.38-125.918-10.94-42.269-1.56-84.506-.2-126.734,1.795-.948.044-.915-1.366,0-1.453,42.993-4.09,86.242-5.011,129.4-3.976,39.734.953,81.447,1.948,120.713,9.058a107.118,107.118,0,0,1-5.9-18.51c-75.04-2.408-149.745-.721-224.877-.321-2.327.012-2.938-2.388-1.984-3.89,2.911-19.268,1.758-37.855-7.331-55.457-4.581-8.873-12.966-19.84-24.085-20.134-9.578-.254-17.074,6.934-22.344,14.443,10.613,5.43,20.163,14.082,25.991,23.756a1.283,1.283,0,0,1-2.007,1.547c-5.647-6.1-11.106-12.13-17.829-17.089a84.122,84.122,0,0,0-8.15-5.21c-.366.588-.722,1.171-1.061,1.748-4.716,8-7.5,17.9-8.219,28.155a193.323,193.323,0,0,1,37.692-3.39c1.363,0,1.716,2.16.328,2.423a193.23,193.23,0,0,1-38.161,3.722,72.973,72.973,0,0,0,3.416,25c.1,0,.208.006.312.012a1.89,1.89,0,0,1,.94,3.488c.129.325.259.647.392.969a348.89,348.89,0,0,0,34.342-31.241,1.593,1.593,0,0,1,2.491,1.922c-7.958,13.643-21.243,25.1-35.627,32.036,4.22,8.871,10.606,16.356,19.276,21.026,10.836.068,21.663.275,32.463.695a1.19,1.19,0,0,1,0,2.379c-11.028.428-22.082.636-33.147.7a30.964,30.964,0,0,0-15.706,15.331.592.592,0,0,1-.547.377A.8.8,0,0,1-185.179,179.742Zm520.4-146.319c-3.191-9.563-5.594-19.356-9.533-28.464-1.169.084-2.34.148-3.509.234-17,1.256-34.127,4.188-51.2,5.864q24.324,2.16,48.622,4.789c1.412.153,1.456,2.355,0,2.246q-31.613-2.368-63.374-4.063C266.089,37.388,310.086,34.639,335.223,33.422ZM157.593,171.68c31.509-12.457,32.981-47.032,27.046-75.562a36.226,36.226,0,0,1-2.563,3.892,19.864,19.864,0,0,1-6.326,6.154c-.632.339-1.523-.387-1.055-1.055,1.656-2.363,3.734-4.391,5.355-6.789,1.427-2.111,2.29-4.673,3.822-6.679.416-1.6,3.031-2.035,3.508-.077,7.3,29.94,6.7,71.547-29.4,81.518a.852.852,0,0,1-.227.033A.738.738,0,0,1,157.593,171.68ZM133.656,168.1c5.978-7,12.177-13.607,17.238-21.351,4.6-7.042,7.834-14.766,12.238-21.9a1.616,1.616,0,0,1,2.939,1.239c-3.683,16.477-17.676,33.891-31.507,43.183a.705.705,0,0,1-.394.131A.8.8,0,0,1,133.656,168.1Zm64.85-33.128a1.043,1.043,0,0,1,.9-1.223.839.839,0,0,1,.717-.487c38.374-2.748,74.453-6.959,111.4-18.376,1.123-.347,1.564,1.36.48,1.742-34.681,12.208-74.314,20.432-111.3,18.463,24.041,52.97,84.829,15.251,120.523-1.085a226.03,226.03,0,0,1,112.572-19.72c1.256.1,1.289,2.026,0,1.982-27.217-.934-53.94,1.952-80.113,9.632-24.765,7.266-46.3,20.548-69.724,30.839a103.727,103.727,0,0,1-40,8.56C223.414,165.3,204.1,157.587,198.506,134.972Zm137.642,19.045c-2.375-5.512.4-11.013,6-12.754.824-.257,1.395,1.055.593,1.408-7.692,3.4-4.068,12.789,2.028,15.3a18.9,18.9,0,0,0,11.214.732c8.17-1.859,15.129-10.573,8.03-17.906-.976-1.007.3-2.756,1.522-1.971,4.842,3.11,5.9,9.379,3.514,14.444-2.845,6.034-9.807,8.891-16.138,9.231q-.636.034-1.28.034C345.4,162.537,338.771,160.106,336.148,154.017Zm-498.6-.5c7.765-12.59,14.147-28.084,15.228-42.891.076-1.037,1.678-1.054,1.631,0-.756,16.929-4.693,30.671-15.682,43.8a.619.619,0,0,1-.484.237A.788.788,0,0,1-162.448,153.52Zm341.875-15.293a41.454,41.454,0,0,0-1.558-9.943c-.818-2.928-2.61-5.587-3.127-8.574-.116-.672.559-1.368,1.229-.945,6,3.774,6.737,13.54,5.835,19.784a.97.97,0,0,1-1.024.872A1.311,1.311,0,0,1,179.427,138.227Zm-69.6-10.087c17.64-4.112,33.3-9.949,49.974-16.975,1.583-.668,2.356,1.775,1.1,2.616-14.556,9.77-33.432,15.136-50.879,15.829h-.032A.753.753,0,0,1,109.826,128.14Zm48.056-27.017c-6.016-3.036-11.527-6.985-17.53-10.082-6.708-3.461-13.7-6.207-20.665-9.087a.771.771,0,0,1,.41-1.486c13.555,2.588,29.324,8.886,39.548,18.372a1.433,1.433,0,0,1-1.1,2.443A1.463,1.463,0,0,1,157.883,101.123Zm-304.871-2.709c-.31-5.02,0-10.05-.425-15.073-.423-4.992-1.5-9.857-2.125-14.813-.122-.977,1.253-.943,1.559-.211a58.872,58.872,0,0,1,3.587,30.448,1.07,1.07,0,0,1-1.108.953A1.472,1.472,0,0,1-146.989,98.414Zm313.745-6.451c-3.839-12.945-7.569-25.056-14.474-36.815-.533-.906.77-1.59,1.369-.8,8.111,10.709,14.6,23.689,15.831,37.247a1.221,1.221,0,0,1-1.326,1.339A1.406,1.406,0,0,1,166.757,91.963ZM-116.5,14.531A1217.424,1217.424,0,0,1,17.226-10.418C24.638-34.147,38.1-55.534,55.138-73.527,7.777-63.97-36.086-41.232-72.777-9.6a1.375,1.375,0,0,1-1.579,1.338c-.164.143-.334.277-.5.421a1.008,1.008,0,0,1-1.51-1.319A21.634,21.634,0,0,0-102.171-4.5c-.715.751-1.764-.35-1.121-1.121a22.792,22.792,0,0,1,29.055-5.586c45.7-44.3,106.711-70.37,170.311-73.575,34.864-1.758,71.152,3.148,103.865,15.56,20.111,7.63,45.258,24.248,41.086,48.71,3.18.549,3.076,5.666-.4,5.542C120.355-19.232,1.492-9.938-116.1,15.974a.846.846,0,0,1-.183.021A.749.749,0,0,1-116.5,14.531ZM80.666-77.4c-7.633.744-15.19,1.857-22.668,3.277,0,0,0,.009-.007.013C40.738-55.239,28.713-34.286,19.5-10.7c40.844-5.244,81.975-8.506,123.106-9.931a82.511,82.511,0,0,0-9.642-34.987.728.728,0,0,1,1.255-.734,79.625,79.625,0,0,1,10.768,35.633q46.237-1.521,92.333.012c-6.014-33.2-38.421-43.651-68.025-50.7a269.789,269.789,0,0,0-62.352-7.274C98.164-78.674,89.387-78.248,80.666-77.4ZM497.825-16.42c-53-2.552-107.322-1.706-160.024-7.895-32.968-3.871-75.891-20.348-78.585-59.232-.059-.868,1.247-.985,1.471-.2,13.59,47.637,62.427,54.269,105.085,57.155q66.018,4.467,132.052,8.585c1,.062,1.023,1.587.047,1.587ZM-2.224-72.8c64-31.283,137.155-43.877,207.268-28,1.534.347,1.205,2.963-.375,2.768C134.608-106.673,63.578-100.258-1.49-71.549a.786.786,0,0,1-.319.07C-2.5-71.48-2.965-72.442-2.224-72.8ZM448.493-90.661c-54.828-8.142-109.582-8.7-164.709-3.357-.816.079-.994-1.294-.193-1.427,54.765-9.147,110.944-7.614,165.406,2.957,1.159.225.722,1.839-.341,1.839A1.1,1.1,0,0,1,448.493-90.661Z" transform="translate(538.782 108.2)"/></svg>