<svg xmlns="http://www.w3.org/2000/svg" xmlns:xlink="http://www.w3.org/1999/xlink" width="190.843" height="60" viewBox="0 0 190.843 60"><defs><style>.a{fill:url(#a);}.b,.c{fill:#d90052;}.b{opacity:0.8;}.c{opacity:0.6;}.d{fill:#fff;}</style><linearGradient id="a" x1="0.073" y1="0.892" x2="0.714" y2="0.186" gradientUnits="objectBoundingBox"><stop offset="0" stop-color="#880f50"/><stop offset="0.013" stop-color="#890e4f"/><stop offset="0.265" stop-color="#a6084d"/><stop offset="0.516" stop-color="#bb034b"/><stop offset="0.763" stop-color="#c7004a"/><stop offset="1" stop-color="#cc004a"/></linearGradient></defs><g transform="translate(-390 -5334)"><g transform="translate(390 5334)"><path class="a" d="M125.006,140.074c.1-.017.2-.035.3-.054l.023,0a18.924,18.924,0,0,0,5.323-1.873l.1-.053q.151-.081.3-.165l.245-.139.111-.065a19.061,19.061,0,0,0,9.387-16.708h-.027c0-.074.006-.148.006-.223a6.2,6.2,0,1,0-12.409,0c0,.091,0,.182.007.272l-.007.006a6.7,6.7,0,0,1-.3,2.221h0a6.685,6.685,0,0,1-1.5,2.56l-.015.016c-.06.063-.122.123-.184.184-.036.034-.07.07-.106.1s-.088.078-.132.117-.116.1-.176.151c-.044.036-.089.071-.133.105s-.1.08-.154.118-.09.063-.136.095q-.125.087-.253.168c-.066.042-.133.084-.2.123-.04.023-.081.045-.122.067-.068.038-.136.075-.206.11l-.12.058q-.111.053-.224.1l-.114.049c-.081.034-.164.065-.247.1l-.108.04c-.051.018-.1.034-.154.05s-.116.038-.175.055l-.077.021a6.675,6.675,0,0,1-3.634-.021l-.1-.029-.058-.019a6.678,6.678,0,0,1-2.638-1.586l-.03-.028c-.044-.043-.086-.089-.129-.134s-.075-.077-.111-.118l-.073-.084c-.051-.059-.1-.118-.152-.179l-.049-.061c-.054-.068-.108-.136-.159-.206l-.047-.066c-.048-.067-.1-.135-.141-.2l-.057-.089c-.039-.061-.078-.123-.115-.185-.024-.04-.047-.081-.069-.121s-.06-.106-.088-.159-.053-.1-.079-.156-.044-.089-.065-.134c-.028-.061-.056-.123-.083-.186-.017-.038-.034-.077-.049-.116-.027-.066-.052-.133-.077-.2-.014-.039-.029-.077-.043-.116-.021-.059-.039-.119-.058-.178s-.033-.1-.047-.15-.02-.073-.029-.109a6.677,6.677,0,0,1-.038-3.367c0-.008,0-.017.006-.025.011-.045.025-.089.037-.134a6.676,6.676,0,0,1,1.858-3.076l.069-.065c.042-.038.086-.075.129-.112s.088-.076.133-.114l.084-.066q.107-.085.217-.165l.1-.07q.1-.072.207-.139l.111-.071c.066-.041.133-.08.2-.118.041-.023.081-.048.123-.07.065-.035.132-.068.2-.1q.15-.075.3-.142c.044-.019.088-.039.132-.058.063-.026.128-.049.192-.074s.1-.04.157-.058l.116-.039c.084-.027.168-.053.253-.077l.061-.018c.116-.032.233-.061.351-.086h.006a6.665,6.665,0,0,1,1.849-.13l.042,0q.168.013.335.034l.114.017.174.027a6.69,6.69,0,0,1,.692.158,6.131,6.131,0,0,1,.781.225c.072.037.145.074.219.109.166.077.335.145.5.207.028.014.057.027.085.042l.049.006a6.2,6.2,0,0,0,4.605-11.5c-.14-.065-.283-.123-.425-.177a19.069,19.069,0,0,0-14.31-.391V86.5a6.205,6.205,0,0,0-12.41,0v33.862c0,.192.01.381.026.569a18.919,18.919,0,0,0,.225,3.286c.007.048.014.1.022.144s.017.1.025.146a18.938,18.938,0,0,0,1.982,5.777l.052.1q.063.116.128.232t.146.257l.041.069a18.942,18.942,0,0,0,3.934,4.739l.076.067.151.128a18.955,18.955,0,0,0,6.626,3.624l.036.011.255.076.224.065.068.018a18.959,18.959,0,0,0,8.066.453l.065-.01Z" transform="translate(-79.753 -80.359)"/><path class="b" d="M96.39,100.838l-3-6.282c-1.475-3.084-4.934-4.5-7.726-3.167s-3.861,4.918-2.386,8L96.39,126.824Z" transform="translate(-74.202 -83.276)"/><path class="c" d="M85.183,117.514l-6.185-5a4.814,4.814,0,1,0-6.04,7.472l21.61,17.473Z" transform="translate(-70.978 -88.938)"/></g><g transform="translate(465.373 5355.605)"><path class="d" d="M206.714,136.372a9.267,9.267,0,0,1-2.561-6.534,9.58,9.58,0,0,1,2.561-6.5,8.671,8.671,0,0,1,6.386-2.822,8.208,8.208,0,0,1,6.2,2.822,9.276,9.276,0,0,1,2.6,6.5,8.985,8.985,0,0,1-2.6,6.534,8.208,8.208,0,0,1-6.2,2.821A8.671,8.671,0,0,1,206.714,136.372Zm1.485-6.534a6,6,0,0,0,1.337,3.935,5.023,5.023,0,0,0,3.564,1.374,4.861,4.861,0,0,0,3.415-1.374,5.7,5.7,0,0,0,1.448-3.935,5.583,5.583,0,0,0-1.448-3.861,5.244,5.244,0,0,0-3.415-1.411,5.4,5.4,0,0,0-3.564,1.411A5.871,5.871,0,0,0,208.2,129.838Z" transform="translate(-183.255 -113.094)"/><path class="d" d="M248.54,128.241v8.873a1.949,1.949,0,0,1-1.931,1.968,2.005,2.005,0,0,1-1.967-1.968v-8.873a3.812,3.812,0,0,0-3.861-3.75,3.708,3.708,0,0,0-3.712,3.75v8.873a.736.736,0,0,1-.074.371,2.03,2.03,0,0,1-1.968,1.6,1.957,1.957,0,0,1-1.968-1.968V122.487a1.957,1.957,0,0,1,1.968-1.968,2.008,2.008,0,0,1,1.819,1.151,7.41,7.41,0,0,1,3.935-1.151A7.772,7.772,0,0,1,248.54,128.241Z" transform="translate(-191.265 -113.094)"/><path class="d" d="M273.706,123.638l-8.39,11.509h6.831a1.98,1.98,0,0,1,1.967,1.968,2.005,2.005,0,0,1-1.967,1.968H261.418a1.389,1.389,0,0,1-.371-.037h-.112a.527.527,0,0,0-.223-.074c-.074-.037-.111-.037-.148-.074-.037,0-.111-.074-.149-.074-.037-.074-.074-.074-.074-.111-.037,0-.037,0-.037-.037-.037,0-.074-.037-.111-.074a1.523,1.523,0,0,0-.148-.111,1.022,1.022,0,0,0-.149-.186.517.517,0,0,0-.111-.149c-.074-.037-.074-.074-.074-.148a.172.172,0,0,1-.111-.186c-.037,0-.037-.074-.074-.186,0-.037-.037-.111-.037-.149v-.26a.136.136,0,0,1-.037-.111v-.037c0-.074.037-.186.037-.26v-.148c.037-.037.037-.111.074-.186a1.6,1.6,0,0,1,.037-.186c.037,0,.111-.111.111-.111a.316.316,0,0,1,.111-.186h.037l8.353-11.546h-6.793a1.98,1.98,0,0,1-1.968-1.968,2.006,2.006,0,0,1,1.968-1.968h10.729c.074,0,.148.037.223.037h.186c.074.037.148.037.186.074a1.612,1.612,0,0,1,.186.037c.037.037.074.111.111.111.074,0,.149.074.223.111a.036.036,0,0,1,.037.037.08.08,0,0,1,.074.074.836.836,0,0,1,.186.186c.037,0,.074.074.111.111a.51.51,0,0,0,.111.148c.037.037.037.074.111.074,0,.111.074.148.074.223a.277.277,0,0,1,.037.186c.037.074.037.149.074.186v.223c0,.037.037.111.037.148v.037a.5.5,0,0,0-.037.186,6.42,6.42,0,0,1-.074.408.2.2,0,0,1-.112.186v.111c-.074.074-.111.149-.186.186Z" transform="translate(-198.579 -113.094)"/><path class="d" d="M316.709,134.194a2.045,2.045,0,0,1-2.079,2.042,2.106,2.106,0,0,1-1.967-1.522,2.186,2.186,0,0,1-.074-.52v-21.9a2.061,2.061,0,0,1,4.121,0v6.46a8.462,8.462,0,0,1,3.972-1.077,8.12,8.12,0,0,1,8.093,8.131v8.391a2.042,2.042,0,1,1-4.084,0V125.8a3.991,3.991,0,1,0-7.981,0Z" transform="translate(-213.304 -110.247)"/><path class="d" d="M184.248,117.685a8.684,8.684,0,0,0-4.889,1.508v-6.914a2.064,2.064,0,0,0-4.114,0v7.257h.014a1.905,1.905,0,0,0-.014.224v7.257h.045a8.965,8.965,0,1,0,8.958-9.332Zm0,14.569a5.286,5.286,0,1,1,4.94-5.275A5.121,5.121,0,0,1,184.248,132.254Z" transform="translate(-175.245 -110.284)"/><path class="d" d="M301,129.818a8.884,8.884,0,1,0-8.873,9.332,8.547,8.547,0,0,0,4.884-1.535,2.024,2.024,0,0,0,1.953,1.358,1.971,1.971,0,0,0,2.037-1.9v-7.257Zm-8.873,5.313a5.29,5.29,0,1,1,4.893-5.275A5.1,5.1,0,0,1,292.123,135.131Z" transform="translate(-205.174 -113.106)"/></g></g></svg>